<?xml version="1.0" encoding="UTF-8"?>
<svg width="18px" height="12px" viewBox="0 0 18 12" version="1.1" xmlns="http://www.w3.org/2000/svg" xmlns:xlink="http://www.w3.org/1999/xlink">
    <!-- Generator: Sketch 57.1 (83088) - https://sketch.com -->
    <title>🔹 Icon Color</title>
    <desc>Created with Sketch.</desc>
    <g id="Page-1" stroke="none" stroke-width="1" fill="none" fill-rule="evenodd">
        <g id="(m)-home" transform="translate(-348.000000, -1357.000000)" fill="#0086DD">
            <g id="Group-5" transform="translate(0.000000, 1323.000000)">
                <g id="Group-4" transform="translate(47.000000, 23.000000)">
                    <path d="M302,23 L318,23 C318.55,23 319,22.55 319,22 C319,21.45 318.55,21 318,21 L302,21 C301.45,21 301,21.45 301,22 C301,22.55 301.45,23 302,23 Z M302,18 L318,18 C318.55,18 319,17.55 319,17 C319,16.45 318.55,16 318,16 L302,16 C301.45,16 301,16.45 301,17 C301,17.55 301.45,18 302,18 Z M301,12 C301,12.55 301.45,13 302,13 L318,13 C318.55,13 319,12.55 319,12 C319,11.45 318.55,11 318,11 L302,11 C301.45,11 301,11.45 301,12 Z" id="🔹-Icon-Color"></path>
                </g>
            </g>
        </g>
    </g>
</svg>