<?xml version="1.0" encoding="UTF-8"?>
<svg width="18px" height="12px" viewBox="0 0 18 12" version="1.1" xmlns="http://www.w3.org/2000/svg" xmlns:xlink="http://www.w3.org/1999/xlink">
    <!-- Generator: Sketch 57.1 (83088) - https://sketch.com -->
    <title>🔹 Icon Color</title>
    <desc>Created with Sketch.</desc>
    <g id="Page-1" stroke="none" stroke-width="1" fill="none" fill-rule="evenodd">
        <g id="(m)-home" transform="translate(-348.000000, -35.000000)" fill="#FFFFFF">
            <g id="Group-5" transform="translate(47.000000, 23.000000)">
                <g id="Group-4">
                    <path d="M302,24 L318,24 C318.55,24 319,23.55 319,23 C319,22.45 318.55,22 318,22 L302,22 C301.45,22 301,22.45 301,23 C301,23.55 301.45,24 302,24 Z M302,19 L318,19 C318.55,19 319,18.55 319,18 C319,17.45 318.55,17 318,17 L302,17 C301.45,17 301,17.45 301,18 C301,18.55 301.45,19 302,19 Z M301,13 C301,13.55 301.45,14 302,14 L318,14 C318.55,14 319,13.55 319,13 C319,12.45 318.55,12 318,12 L302,12 C301.45,12 301,12.45 301,13 Z" id="🔹-Icon-Color"></path>
                </g>
            </g>
        </g>
    </g>
</svg>