<?xml version="1.0" encoding="UTF-8"?>
<svg width="36px" height="24px" viewBox="0 0 36 24" version="1.1" xmlns="http://www.w3.org/2000/svg" xmlns:xlink="http://www.w3.org/1999/xlink">
    <!-- Generator: Sketch 57.1 (83088) - https://sketch.com -->
    <title>noun_scroll down_2047489</title>
    <desc>Created with Sketch.</desc>
    <g id="Symbols" stroke="none" stroke-width="1" fill="none" fill-rule="evenodd" opacity="0.303176153">
        <g id="m/testimonials" transform="translate(-283.000000, -270.000000)" fill="#161A1E" fill-rule="nonzero">
            <g id="Group-3" transform="translate(0.000000, -2.000000)">
                <g id="noun_scroll-down_2047489" transform="translate(301.000000, 284.000000) rotate(-90.000000) translate(-301.000000, -284.000000) translate(289.000000, 266.000000)">
                    <path d="M12.8000002,35.0800005 L10.7200002,35.0800005 C4.88000007,35.0800005 0.120000002,30.3200005 0.120000002,24.4800004 L0.120000002,10.7600002 C0.120000002,4.92000007 4.88000007,0.160000002 10.7200002,0.160000002 L12.8000002,0.160000002 C18.6400003,0.160000002 23.4000003,4.92000007 23.4000003,10.7600002 L23.4000003,24.4800004 C23.4000003,30.3200005 18.6400003,35.0800005 12.8000002,35.0800005 Z M10.7200002,2.16000003 C6.00000009,2.16000003 2.12000003,6.00000009 2.12000003,10.7600002 L2.12000003,24.4800004 C2.12000003,29.2400004 6.00000009,33.0800005 10.7200002,33.0800005 L12.8000002,33.0800005 C17.5600003,33.0800005 21.4000003,29.2000004 21.4000003,24.4800004 L21.4000003,10.7600002 C21.4000003,6.00000009 17.5200003,2.16000003 12.8000002,2.16000003 L10.7200002,2.16000003 Z" id="Shape"></path>
                    <path d="M16.7200002,18.6800003 L16.7200002,18.6800003 C16.3600002,18.2800003 15.7200002,18.2800003 15.3200002,18.6800003 L12.7600002,21.4800003 L12.7600002,11.3200002 C12.7600002,10.7600002 12.3200002,10.3200002 11.7600002,10.3200002 C11.2000002,10.3200002 10.7600002,10.7600002 10.7600002,11.3200002 L10.7600002,21.5200003 L8.20000012,18.7200003 C7.84000012,18.3200002 7.20000011,18.3200002 6.8000001,18.7200003 L6.8000001,18.7200003 C6.4800001,19.0800003 6.4800001,19.6400003 6.8000001,20.0000003 L11.0400002,24.6800004 C11.4000002,25.0800004 12.0400002,25.0800004 12.4400002,24.6800004 L16.7200002,20.0000003 C17.0400003,19.6000003 17.0400003,19.0400003 16.7200002,18.6800003 Z" id="Path"></path>
                </g>
            </g>
        </g>
    </g>
</svg>